<?xml version="1.0" encoding="iso-8859-1"?>
<!-- Uploaded to: SVG Repo, www.svgrepo.com, Generator: SVG Repo Mixer Tools -->
<svg height="800px" width="800px" version="1.1" id="Layer_1" xmlns="http://www.w3.org/2000/svg" xmlns:xlink="http://www.w3.org/1999/xlink" 
	 viewBox="0 0 487.562 487.562" xml:space="preserve">
<circle style="fill:#4ABC96;" cx="243.781" cy="236.827" r="236.827"/>
<g>
	<g>
		<path style="fill:#E0E4E3;" d="M325.191,397.405c21.084,0,38.181-17.09,38.181-38.181V103.081
			c0-21.091-17.097-38.181-38.181-38.181H166.353c-21.084,0-38.181,17.09-38.181,38.181v256.142
			c0,21.091,17.097,38.181,38.181,38.181H325.191z"/>
	</g>
</g>
<g>
	<g>
		<path style="fill:#9ED8D8;" d="M266.342,461.254v-0.464c3.369-1.107,6.623-2.464,9.753-4.05l0.329,0.337
			c5.901,5.897,22.912,14.304,31.416,5.793l5.187-5.187c8.508-8.511,0.576-25.051-5.793-31.416l-0.333-0.333
			c1.586-3.123,2.939-6.387,4.046-9.757h0.464c8.339,0,26.308-6.084,26.308-18.118v-7.333c0-12.03-17.299-18.122-26.308-18.122
			h-0.464c-1.107-3.369-2.461-6.627-4.046-9.749l0.333-0.337c4.959-4.955,14.3-22.909,5.793-31.412l-5.183-5.191
			c-8.508-8.508-25.99,0.366-31.42,5.793l-0.333,0.329c-3.126-1.582-6.38-2.939-9.749-4.042v-0.467
			c0-7.008-6.092-26.308-18.126-26.308h-7.33c-12.038,0-18.126,18.634-18.126,26.308v0.467c-3.373,1.103-6.627,2.461-9.753,4.042
			l-0.333-0.333c-4.959-4.959-22.909-14.3-31.416-5.793l-5.183,5.191c-8.508,8.504,0.363,25.986,5.793,31.412l0.333,0.333
			c-1.586,3.126-2.943,6.383-4.046,9.753h-0.467c-7.008,0-26.308,6.092-26.308,18.122v7.333c0,12.034,18.631,18.118,26.308,18.118
			h0.464c1.107,3.369,2.464,6.634,4.05,9.757l-0.333,0.333c-5.901,5.897-14.3,22.905-5.793,31.416l5.187,5.187
			c8.508,8.504,25.048,0.572,31.412-5.793l0.333-0.333c3.126,1.582,6.38,2.939,9.753,4.046v0.464
			c0,8.339,6.088,26.312,18.126,26.312h7.33C260.25,487.566,266.342,470.263,266.342,461.254z M204.093,394.39
			c0-22.344,18.111-40.455,40.455-40.455s40.455,18.115,40.455,40.455c0,22.348-18.111,40.455-40.455,40.455
			S204.093,416.734,204.093,394.39z"/>
	</g>
</g>
<g>
	<path style="fill:#78A4A4;" d="M344.379,110.942c0,4.521-3.665,8.193-8.193,8.193h-71.003c-4.525,0-8.197-3.672-8.197-8.193
		c0-4.529,3.672-8.197,8.197-8.197h71C340.711,102.741,344.379,106.413,344.379,110.942"/>
	<path style="fill:#78A4A4;" d="M344.379,145.331c0,4.525-3.665,8.19-8.193,8.19h-71.003c-4.525,0-8.197-3.665-8.197-8.19
		c0-4.529,3.672-8.193,8.197-8.193h71C340.711,137.138,344.379,140.802,344.379,145.331"/>
	<path style="fill:#78A4A4;" d="M344.379,181.669c0,4.521-3.665,8.19-8.193,8.19h-71.003c-4.525,0-8.197-3.669-8.197-8.19
		c0-4.532,3.672-8.193,8.197-8.193h71C340.711,173.475,344.379,177.136,344.379,181.669"/>
	<path style="fill:#78A4A4;" d="M344.379,219.128c0,4.3-3.489,7.793-7.793,7.793H156.701c-4.308,0-7.793-3.493-7.793-7.793
		c0-4.301,3.485-7.797,7.793-7.797h179.885C340.89,211.331,344.379,214.824,344.379,219.128"/>
	<path style="fill:#78A4A4;" d="M344.379,257.799c0,4.301-3.489,7.793-7.793,7.793H156.701c-4.308,0-7.793-3.493-7.793-7.793
		c0-4.301,3.485-7.793,7.793-7.793h179.885C340.89,250.005,344.379,253.498,344.379,257.799"/>
</g>
<path style="fill:#9ED8D8;" d="M233.927,173.415c0,6.903-5.594,12.498-12.501,12.498h-59.381c-6.907,0-12.501-5.594-12.501-12.498
	v-59.381c0-6.911,5.594-12.505,12.501-12.505h59.381c6.907,0,12.501,5.594,12.501,12.505L233.927,173.415L233.927,173.415z"/>
</svg>