<svg xmlns="http://www.w3.org/2000/svg" viewBox="69.76 87 1041.058 794.326"><path fill="#f5f8fc" d="m57.92,288.26c-5.42-92.97,49.47-177.03,122.82-204.36,47.12-17.56,107.71-12,150.81,13.62,65.17,38.74,41.45,94.28,102.05,129.03,60.75,34.84,107.04-8.11,177.91,25.65,75.54,35.98,94.31,118.77,96.63,129.83,17.84,85.01-30.17,175.19-113.79,220.39-118.22,63.9-274.09,19.77-319.69-48.09-25.3-37.65-11.02-74.22-51.48-104.19-37.84-28.02-73.39-13.1-106.56-38.47-21.71-16.6-52.38-48.09-58.7-123.42Z" transform="translate(98.65 -10.023) scale(1.31605)"/><g transform="translate(287.082 124.927) scale(1.20514)"><rect width="481.27" height="204.14" x="45.57" y="28.49" fill="#b8c2d8"/><rect width="89.55" height="89.55" x="53" y="38.25" fill="#f9f9ff"/><rect width="89.55" height="89.55" x="147.22" y="38.25" fill="#f9f9ff"/><rect width="89.55" height="89.55" x="241.43" y="38.25" fill="#f9f9ff"/><rect width="89.55" height="89.55" x="335.65" y="38.25" fill="#f9f9ff"/><rect width="89.55" height="89.55" x="429.87" y="38.25" fill="#f9f9ff"/><rect width="89.55" height="89.55" x="53" y="133.32" fill="#f9f9ff"/><rect width="89.55" height="89.55" x="147.22" y="133.32" fill="#f9f9ff"/><rect width="89.55" height="89.55" x="241.43" y="133.32" fill="#f9f9ff"/><rect width="89.55" height="89.55" x="335.65" y="133.32" fill="#f9f9ff"/><rect width="89.55" height="89.55" x="429.87" y="133.32" fill="#f9f9ff"/><polygon fill="#fff" points="110.81 222.87 106.24 222.87 53 177.52 53 173.62 110.81 222.87"/><polygon fill="#fff" points="142.55 88.15 142.55 92.09 80.83 38.25 85.35 38.25 142.55 88.15"/><polygon fill="#fff" points="335.65 45.27 425.2 123.37 425.2 127.32 335.65 49.21 335.65 45.27"/><polygon fill="#e8e8e8" points="430.27 127.8 429.87 127.8 429.87 127.45 430.27 127.8"/><polygon fill="#fff" points="383.2 133.32 425.2 169.96 425.2 173.9 378.68 133.32 383.2 133.32"/><polygon fill="#fff" points="485.86 222.87 481.34 222.87 429.87 177.97 429.87 174.03 485.86 222.87"/><polygon fill="#fff" points="330.98 214.8 330.98 218.74 241.43 140.63 241.43 136.68 330.98 214.8"/><polygon fill="#fff" points="330.98 192.23 330.98 196.17 258.92 133.32 263.45 133.32 330.98 192.23"/><polygon fill="#fff" points="429.87 104.86 456.16 127.8 451.64 127.8 429.87 108.81 429.87 104.86"/><polygon fill="#fff" points="519.42 182.97 519.42 186.92 457.97 133.32 462.49 133.32 519.42 182.97"/><polygon fill="#fff" points="359.38 38.25 425.2 95.66 425.2 103.55 350.34 38.25 359.38 38.25"/><polygon fill="#fff" points="403.36 38.25 425.2 57.31 425.2 65.19 394.31 38.25 403.36 38.25"/><polygon fill="#fff" points="506.02 127.8 496.97 127.8 429.87 69.27 429.87 61.38 506.02 127.8"/><polygon fill="#fff" points="514.7 222.87 505.66 222.87 429.87 156.76 429.87 148.87 514.7 222.87"/><polygon fill="#fff" points="142.55 206.15 142.55 222.87 135.97 222.87 53 151.94 53 133.32 57.34 133.32 142.55 206.15"/><polygon fill="#fff" points="204.84 38.25 236.76 65.55 236.76 87.88 178.71 38.25 204.84 38.25"/><polygon fill="#fff" points="309.59 127.8 283.46 127.8 241.43 91.87 241.43 69.53 309.59 127.8"/><polygon fill="#e8e8e8" points="232.03 38.25 236.76 38.25 236.76 42.3 232.03 38.25"/><polygon fill="#fff" points="330.98 89.35 330.98 122.84 241.43 46.29 241.43 38.25 271.21 38.25 330.98 89.35"/><polygon fill="#fff" points="416.05 38.25 425.2 38.25 425.2 46.07 416.05 38.25"/><polygon fill="#fff" points="519.42 93.12 519.42 126.61 429.87 50.06 429.87 38.25 455.23 38.25 519.42 93.12"/><polygon fill="#fff" points="142.55 107.99 142.55 127.8 126.49 127.8 53 61.98 53 38.25 64.69 38.25 142.55 107.99"/><polygon fill="#fff" points="236.76 192.39 236.76 222.87 232.62 222.87 147.22 146.37 147.22 133.32 170.82 133.32 236.76 192.39"/></g><g transform="translate(77.748 240.517) scale(.46962)"><path fill="#f2f2f2" d="M63.09 135.54c-1.54-1.54-3.68-2.49-6.03-2.49-4.71 0-8.53 3.81-8.53 8.51v17.48h17.06v-17.48c0-2.35-.95-4.48-2.5-6.02zm-.65 18.71h-10.77v-11.04c0-2.97 2.42-5.38 5.39-5.38 1.49 0 2.84.6 3.81 1.58.98.97 1.58 2.31 1.58 3.8v11.04zM406.04 135.54c-1.54-1.54-3.68-2.49-6.03-2.49-4.71 0-8.53 3.81-8.53 8.51v17.48h17.06v-17.48c0-2.35-.95-4.48-2.5-6.02zm-.65 18.71h-10.77v-11.04c0-2.97 2.42-5.38 5.39-5.38 1.49 0 2.84.6 3.81 1.58.98.97 1.58 2.31 1.58 3.8v11.04z"/><rect width="491.08" height="250.95" x="-17.01" y="146.05" fill="#7c4b33"/><rect width="464.15" height="218.69" x="-3.55" y="162.18" fill="#ffbc97"/><path d="m460.6,381.54H-3.55c-.37,0-.67-.3-.67-.67v-218.69c0-.37.3-.67.67-.67h464.15c.37,0,.67.3.67.67v218.69c0,.37-.3.67-.67.67Zm-463.48-1.34h462.8v-217.34H-2.87v217.34Z"/><path d="m461.05,162.85c-.15,0-.3-.05-.42-.15-.29-.23-.33-.66-.1-.95l11.67-14.34c.24-.29.66-.33.95-.1.29.23.33.66.1.95l-11.67,14.34c-.13.16-.33.25-.52.25Z"/><polygon fill="#f2f2f2" points="86.28 241.95 69.1 248.12 83.05 236.35 86.28 241.95 86.28 241.95"/><ellipse cx="83.07" cy="240" fill="#f90065" rx="6.18" ry="11.87" transform="rotate(-25.09 83.086 240.023)"/><path fill="#f90065" d="m98.52,237.45l-2.29,1.23-6.07,3.25c-2.36,1.26-5.3.3-6.45-2.11-.97-2.04-.33-4.49,1.51-5.8l6.21-4.42,1.83-1.3c1.85-1.29,4.41-.71,5.49,1.26l1.48,2.69c1.03,1.9.25,4.27-1.72,5.2Z"/><path fill="#ba0055" d="m98.52,237.45h0c-1.26.68-2.83.2-3.49-1.06l-2.53-4.81c-.6-1.14-.26-2.54.78-3.28h0c1.85-1.29,4.41-.71,5.49,1.26l1.48,2.69c1.03,1.9.25,4.27-1.72,5.2Z"/><polygon fill="#f2f2f2" points="63.84 281.38 46.66 287.55 60.6 275.78 63.84 281.38 63.84 281.38"/><ellipse cx="60.62" cy="279.44" fill="#32ce95" rx="6.18" ry="11.87" transform="rotate(-25.09 60.634 279.457)"/><path fill="#32ce95" d="m76.08,276.89l-2.29,1.23-6.07,3.25c-2.36,1.26-5.3.3-6.45-2.11-.97-2.04-.33-4.49,1.51-5.8l6.21-4.42,1.83-1.3c1.85-1.29,4.41-.71,5.49,1.26l1.48,2.69c1.03,1.9.25,4.27-1.72,5.2Z"/><path fill="#1aa069" d="m76.08,276.89h0c-1.26.68-2.83.2-3.49-1.06l-2.53-4.81c-.6-1.14-.26-2.54.78-3.28h0c1.85-1.29,4.41-.71,5.49,1.26l1.48,2.69c1.03,1.9.25,4.27-1.72,5.2Z"/><polygon fill="#f2f2f2" points="114.12 302.89 96.93 309.06 110.88 297.29 114.12 302.89 114.12 302.89"/><ellipse cx="110.9" cy="300.95" fill="#112e5b" rx="6.18" ry="11.87" transform="rotate(-25.09 110.911 300.974)"/><path fill="#112e5b" d="m126.35,298.4l-2.29,1.23-6.07,3.25c-2.36,1.26-5.3.3-6.45-2.11-.97-2.04-.33-4.49,1.51-5.8l6.21-4.42,1.83-1.3c1.85-1.29,4.41-.71,5.49,1.26l1.48,2.69c1.03,1.9.25,4.27-1.72,5.2Z"/><path fill="#0a1e3a" d="m126.35,298.4h0c-1.26.68-2.83.2-3.49-1.06l-2.53-4.81c-.6-1.14-.26-2.54.78-3.28h0c1.85-1.29,4.41-.71,5.49,1.26l1.48,2.69c1.03,1.9.25,4.27-1.72,5.2Z"/></g><g transform="translate(98.62 669.37) scale(.40864)"><rect width="239.6" height="5.6" x="-86.55" y="327.25" transform="rotate(-78.95 33.238 330.047)"/><rect width="5.6" height="239.6" x="288.14" y="210.25" transform="rotate(-11.05 291.025 330.135)"/><rect width="5.6" height="243.38" x="465.72" y="208.36" transform="rotate(-14.94 468.502 330.041)"/><path fill="#7c4b33" d="m17.13-.84h273.81v207.16H-.37V16.65C-.37,7,7.47-.84,17.13-.84Z"/><path fill="#562f20" d="m290.94-.84h186.42c9.65,0,17.49,7.84,17.49,17.49v189.67h-203.91V-.84h0Z"/><rect width="110.92" height="20.16" x="78.06" y="23.79" fill="#562f20"/><rect width="291.3" height="12.32" x="-.37" y="206.32" fill="#ffbc97"/><rect width="203.91" height="12.32" x="290.94" y="206.32" fill="#422117"/><rect width="412.3" height="5.6" x="42.77" y="280.22"/></g><g transform="translate(269.052 526.82) scale(1.05568)"><path fill="#7c4b33" d="M70.14 306.17h-23.8c-2.7 0-4.78-2.18-4.38-4.62l5.69-35.23c.32-1.98 2.19-3.44 4.38-3.44h16.21c2.36 0 4.31 1.69 4.43 3.83l1.9 35.23c.12 2.3-1.89 4.23-4.43 4.23zM613.62 306.17h23.8c2.7 0 4.78-2.18 4.38-4.62l-5.69-35.23c-.32-1.98-2.19-3.44-4.38-3.44h-16.21c-2.36 0-4.31 1.69-4.43 3.83l-1.9 35.23c-.12 2.3 1.89 4.23 4.43 4.23z"/><rect width="76.51" height="104.83" x="44.47" y="64.68" fill="#d8baa4"/><path fill="#ffede1" d="m27.98,64.68h19.39c11.79,0,21.36,9.57,21.36,21.36v188.3H27.98c-13.56,0-24.56-11.01-24.56-24.56V89.25c0-13.56,11.01-24.56,24.56-24.56Z"/><rect width="75.58" height="104.83" x="562.78" y="64.68" fill="#d8baa4"/><path fill="#ffede1" d="m636.38,64.68h19.39c13.56,0,24.56,11.01,24.56,24.56v160.53c0,13.56-11.01,24.56-24.56,24.56h-40.75V86.04c0-11.79,9.57-21.36,21.36-21.36Z"/><path fill="#f7e3d5" d="m122.7.17h205.8c7.38,0,13.38,6,13.38,13.38v122.85H109.32V13.55c0-7.38,6-13.38,13.38-13.38Z"/><path fill="#f7e3d5" d="m355.26.17h205.8c7.38,0,13.38,6,13.38,13.38v122.85h-232.56V13.55c0-7.38,6-13.38,13.38-13.38Z"/><rect width="546.3" height="82.76" x="68.73" y="191.58" fill="#f7e3d5"/><rect width="546.3" height="82.76" x="68.73" y="136.41" fill="#ffede1" rx="17.85" ry="17.85"/><rect width="1.11" height="103.98" x="341.32" y="13.12"/><rect width="1.11" height="62.81" x="341.32" y="154.02"/></g><g transform="translate(121.53 468.338) scale(.4506)"><polygon fill="#90d8e0" points="41.03 446.5 234.4 446.5 298.4 260.47 105.02 260.47 41.03 446.5"/><path d="m234.98,447.31H39.89l64.56-187.66h195.09l-64.56,187.66Zm-192.81-1.63h191.65l63.44-184.41H105.6l-63.44,184.41Z"/><polygon points="376.63 447.07 234.4 447.07 299.6 259.9 376.63 447.07"/><path d="m281.89,259.9h-1.97c0-7.71-4.58-13.98-10.2-13.98s-10.2,6.27-10.2,13.98h-1.97c0-8.79,5.46-15.95,12.18-15.95s12.18,7.15,12.18,15.95Z"/><path d="m265.93,259.9h-1.97c0-7.71-4.58-13.98-10.2-13.98s-10.2,6.27-10.2,13.98h-1.97c0-8.79,5.46-15.95,12.18-15.95s12.17,7.15,12.17,15.95Z"/><path d="m248.39,259.9h-1.97c0-7.71-4.58-13.98-10.2-13.98s-10.2,6.27-10.2,13.98h-1.97c0-8.79,5.46-15.95,12.17-15.95s12.18,7.15,12.18,15.95Z"/><path d="m229.22,259.9h-1.97c0-7.71-4.58-13.98-10.2-13.98s-10.2,6.27-10.2,13.98h-1.97c0-8.79,5.46-15.95,12.17-15.95s12.18,7.15,12.18,15.95Z"/><path d="m213.26,259.9h-1.97c0-7.71-4.58-13.98-10.2-13.98s-10.2,6.27-10.2,13.98h-1.97c0-8.79,5.46-15.95,12.18-15.95s12.18,7.15,12.18,15.95Z"/><path d="m197.3,259.9h-1.97c0-7.71-4.58-13.98-10.2-13.98s-10.2,6.27-10.2,13.98h-1.97c0-8.79,5.46-15.95,12.18-15.95s12.17,7.15,12.17,15.95Z"/><path d="m181.33,259.9h-1.97c0-7.71-4.58-13.98-10.2-13.98s-10.2,6.27-10.2,13.98h-1.97c0-8.79,5.46-15.95,12.17-15.95s12.18,7.15,12.18,15.95Z"/><path d="m165.37,259.9h-1.97c0-7.71-4.58-13.98-10.2-13.98s-10.2,6.27-10.2,13.98h-1.97c0-8.79,5.46-15.95,12.18-15.95s12.18,7.15,12.18,15.95Z"/><path d="m149.41,259.9h-1.97c0-7.71-4.58-13.98-10.2-13.98s-10.2,6.27-10.2,13.98h-1.97c0-8.79,5.46-15.95,12.18-15.95s12.17,7.15,12.17,15.95Z"/><polygon fill="#fff" points="228.54 320.35 262.79 320.35 273.84 286.29 239.59 286.29 228.54 320.35"/><path d="m263.51,321.33h-36.33l11.69-36.03h36.33l-11.69,36.03Zm-33.61-1.97h32.18l10.41-32.08h-32.18l-10.41,32.08Z"/><polygon fill="#fff" points="185.47 320.35 219.72 320.35 230.77 286.29 196.52 286.29 185.47 320.35"/><path d="m220.44,321.33h-36.33l11.69-36.03h36.33l-11.69,36.03Zm-33.61-1.97h32.18l10.41-32.08h-32.18l-10.41,32.08Z"/><polygon fill="#fff" points="142.4 320.35 176.66 320.35 187.7 286.29 153.45 286.29 142.4 320.35"/><path d="m177.37,321.33h-36.33l11.69-36.03h36.33l-11.69,36.03Zm-33.61-1.97h32.18l10.41-32.08h-32.18l-10.41,32.08Z"/><polygon fill="#fff" points="99.34 320.35 133.59 320.35 144.64 286.29 110.38 286.29 99.34 320.35"/><path d="m134.31,321.33h-36.33l11.69-36.03h36.33l-11.69,36.03Zm-33.61-1.97h32.18l10.41-32.08h-32.18l-10.41,32.08Z"/><polygon fill="#fff" points="211.55 370.51 245.8 370.51 256.84 336.45 222.59 336.45 211.55 370.51"/><path d="m246.51,371.5h-36.33l11.69-36.03h36.33l-11.69,36.03Zm-33.61-1.97h32.18l10.41-32.08h-32.18l-10.41,32.08Z"/><polygon fill="#f90065" points="168.48 370.51 202.73 370.51 213.78 336.45 179.53 336.45 168.48 370.51"/><path d="m203.45,371.5h-36.33l11.69-36.03h36.33l-11.69,36.03Zm-33.61-1.97h32.18l10.41-32.08h-32.18l-10.41,32.08Z"/><polygon fill="#fff" points="125.41 370.51 159.66 370.51 170.71 336.45 136.46 336.45 125.41 370.51"/><path d="m160.38,371.5h-36.33l11.69-36.03h36.33l-11.69,36.03Zm-33.61-1.97h32.18l10.41-32.08h-32.18l-10.41,32.08Z"/><polygon fill="#fff" points="82.34 370.51 116.6 370.51 127.64 336.45 93.39 336.45 82.34 370.51"/><path d="m117.31,371.5h-36.33l11.69-36.03h36.33l-11.69,36.03Zm-33.61-1.97h32.18l10.41-32.08h-32.18l-10.41,32.08Z"/><polygon fill="#fff" points="194.55 420.68 228.8 420.68 239.85 386.62 205.6 386.62 194.55 420.68"/><path d="m229.52,421.66h-36.33l11.69-36.03h36.33l-11.69,36.03Zm-33.61-1.97h32.18l10.41-32.08h-32.18l-10.41,32.08Z"/><polygon fill="#fff" points="151.49 420.68 185.74 420.68 196.78 386.62 162.53 386.62 151.49 420.68"/><path d="m186.45,421.66h-36.33l11.69-36.03h36.33l-11.69,36.03Zm-33.61-1.97h32.18l10.41-32.08h-32.18l-10.41,32.08Z"/><polygon fill="#fff" points="108.42 420.68 142.67 420.68 153.72 386.62 119.47 386.62 108.42 420.68"/><path d="m143.39,421.66h-36.33l11.69-36.03h36.33l-11.69,36.03Zm-33.61-1.97h32.18l10.41-32.08h-32.18l-10.41,32.08Z"/><polygon fill="#fff" points="65.35 420.68 99.6 420.68 110.65 386.62 76.4 386.62 65.35 420.68"/><path d="m100.32,421.66h-36.33l11.69-36.03h36.33l-11.69,36.03Zm-33.61-1.97h32.18l10.41-32.08h-32.18l-10.41,32.08Z"/></g><g transform="translate(970.776 293.064) scale(.59949)"><path fill="#112e5b" d="m182,925.73h-8.18V44.93c0-20.09-11.51-36.43-25.66-36.43-13.36,0-24.23,15.47-24.23,34.48v33.79h-8.18v-33.79C115.74,19.45,130.28.32,148.15.32s33.84,20.01,33.84,44.61v880.8Z"/><ellipse cx="117.44" cy="146.82" fill="#ffcc83" rx="85.92" ry="85.93"/><path fill="#f2f2f2" d="m121.93,57.71h4.3c59.26,0,107.37,48.11,107.37,107.37v15.95H.5v-1.89C.5,112.13,54.91,57.71,121.93,57.71Z"/><rect width="233.1" height="7.96" x=".5" y="181.03" fill="#112e5b"/><path fill="#f2f2f2" d="m89.6,916.18h117.74c10.1,0,18.3,8.2,18.3,18.3H71.3c0-10.1,8.2-18.3,18.3-18.3Z"/><path d="m225.64,935.09H71.3c-.33,0-.61-.27-.61-.61s.27-.61.61-.61h154.34c.33,0,.61.27.61.61s-.27.61-.61.61Z"/></g><g transform="translate(314.067 339.194) scale(.60573)"><path fill="#7c4b33" d="m122.02,216.48c-.81,0,33.02-20.15,50.73-70.91,17.72-50.77,37.85-50.77,50.73-49.16,12.88,1.61,45.09,8.86,41.87,39.49-3.22,30.62-34.53,84.24-24.92,98.13l-118.42-17.54Z"/><polygon fill="#ffcc83" points="122.94 201.52 182.41 200.37 248.44 222.93 315.27 253.55 291.12 412.3 72.09 466.29 122.94 201.52"/><rect width="76.63" height="140.56" x="308.97" y="237.64" fill="#ffcc83" rx="38.31" ry="38.31" transform="rotate(-38.32 347.25 307.912)"/><path fill="#ffcc83" d="m354.73,288.2s-33.02,5.64-39.46,16.92c-6.44,11.28,4.03,35.46,9.66,49.96,5.64,14.5,19.81,31.18,48.31,24.98,18.52-4.03,77.06-27.46,24.96-81.39-23.35-24.17-43.48-10.48-43.48-10.48Z"/><path fill="#ffbc97" d="m224.28,243.88c-40.26-4.83-67.64-41.1-67.64-41.1,28.18-4.83,33.82-43.51,33.82-43.51,0,0,2.42-14.5,24.16-9.67,26.66,5.93,26.25,24.44,25.86,28.3-.05.46-.1.71-.1.71,0,0-3.22,16.12-1.61,30.62.23,2.01.57,3.73,1.01,5.2,2.68,9.1,8.66,8.5,8.66,8.5,0,0,16.1,25.79-24.16,20.95Z"/><path d="M240.39 178.61s-3.22 16.12-1.61 30.62c.23 2.01.57 3.73 1.01 5.2-1.25.29-2.66.44-4.23.44-24.16 0-31.4-43.51-31.4-43.51l36.33 6.54c-.05.46-.1.71-.1.71zM338.63 344.61s0 34.65 27.38 31.43c27.38-3.22 56.37-24.98 43.48-53.18-12.88-28.2-70.86 21.76-70.86 21.76zM318.36 340.58c-.28 0-.53-.2-.59-.48-2.85-14.02-3.9-28.38-3.11-42.67.02-.33.32-.6.64-.57.33.02.59.3.57.64-.78 14.19.26 28.44 3.09 42.36.07.33-.14.65-.47.71-.04 0-.08.01-.12.01zM72.09 433.25s4.83 12.89 64.42-48.35c63.44-65.2-7.77-35.58-19.19-25.04-11.41 10.54-54.9 48.41-45.23 73.39z"/><path fill="#ffbc97" d="m171.9,134.94c3.64-3.89,8.92-5.44,14.18-4.71,7.31-21.81,25-32.25,44.34-27.71,20.94,4.91,35.88,25.49,29.89,51.1-5.99,25.61-13.43,45.77-34.37,40.86-11.73-2.75-25.19-12.77-33.73-25.56-6.77-1.43-14-5.05-18.1-8.9-7.55-7.09-8.54-18.32-2.2-25.07Z"/><path d="m173.72,149.72l-1.2-.95c3.35-4.24,8.02-7.52,13.14-9.24l.49,1.45c-4.84,1.63-9.26,4.73-12.43,8.73Z"/><path fill="#fff" d="m177.73,144.66c.43,2.39.87,4.77,1.3,7.16"/><rect width="1.53" height="7.27" x="177.61" y="144.6" transform="rotate(-10.3 178.31 148.172)"/><ellipse cx="223.62" cy="142.95" rx="3.4" ry="2.43" transform="rotate(-76.85 223.626 142.95)"/><ellipse cx="248.43" cy="147.93" rx="3.4" ry="2.43" transform="rotate(-76.85 248.429 147.93)"/><path d="M243.82 164.79c-3.96-2.68-6.75-6.91-7.65-11.61-.9-4.7.12-9.66 2.81-13.62l1.27.86c-2.46 3.62-3.4 8.17-2.57 12.47.83 4.3 3.38 8.18 7 10.63l-.86 1.27zM231.38 173.75c-6.66-1.81-11.92-7.6-13.09-14.41l1.51-.26c1.05 6.14 5.98 11.56 11.99 13.19l-.4 1.48z"/><path d="m231.9,195.97c-1.96,0-4-.25-6.14-.75-12.1-2.84-25.42-12.88-34.02-25.62-6.69-1.47-13.96-5.08-18.16-9.03-7.85-7.37-8.85-19.1-2.23-26.16,3.55-3.79,8.71-5.61,14.21-5.02,7.45-21.47,25.06-32.3,45.04-27.62l-.35,1.49c-19.33-4.53-36.38,6.15-43.44,27.21l-.2.6-.63-.09c-5.24-.72-10.17.91-13.51,4.48-6.04,6.44-5.07,17.2,2.17,23.99,4.08,3.84,11.21,7.34,17.74,8.71l.31.06.17.26c8.25,12.37,21.62,22.51,33.27,25.24,3.96.93,7.58.95,10.76.07.03-.01,10.21-4.12,14.6-14.7l.17-.41c2.44-5.87,8.93-21.48,9.12-39.99l1.53.02c-.19,18.8-6.76,34.61-9.23,40.56l-.17.41c-4.65,11.2-15.08,15.39-15.53,15.57-1.73.48-3.55.72-5.45.72Z"/><path fill="#ffbc97" d="m304,232.6s-14.49,6.45-21.74-8.06l-7.25-14.5s-10.47,9.67-14.49.81c-4.03-8.86-20.13-32.23-7.25-33.84,0,0-2.42-12.09,8.86-10.48,0,0,0-12.89,13.69-5.64,0,0,6.44-10.48,12.88-5.64s38.65,53.18,38.65,53.18c0,0-2.42,24.17-23.35,24.17Z"/><path fill="#ffbc97" d="m385.86,367.77h0c-21.58,9.68-45.63.63-53.22-20.02l-39.91-114.34c-8.86-21.76,18.52-44.32,33.76-26.15l77.99,97.99c15.98,20.08,6.72,51.15-18.62,62.52Z"/><rect width="77.31" height="227.36" x="63.47" y="197.1" fill="#ffcc83" rx="38.65" ry="38.65" transform="rotate(19.33 102.127 310.877)"/><path fill="#ffcc83" d="m217.84,252.74l12.88-29.82,19.33,24.98s-13.69,9.67-32.21,4.83Z"/><path fill="#112e5b" d="m410.29,882.9c-19.33,14.5-74.89,6.45-99.85.81-19.33-4.37-47.51-19.34-53.15-32.23-1.21-2.76-2.42,10.48-2.42,10.48l-36.24-12.09,3.22-35.46c-3.22-15.31,3.22-25.79,3.22-25.79,0,0,.03,0,.1.02.97.28,9.4,2.7,21.95,6.28,11.08,4.02,23.14,9.98,27.88,17.87,9.66,16.12,20.13,23.37,44.29,33.84,24.16,10.48,76.5-8.86,63.61-14.5,14.49,3.22,46.7,36.26,27.38,50.77Z"/><path fill="#ffcc83" d="m238.34,199.14s2.86,17.34-7.61,23.79l17.72,29.82s11.27-15.31,4.83-29.01c-6.44-13.7-14.93-24.6-14.93-24.6Z"/><path fill="#ffcc83" d="m152.62,201.17l18.96-13.74c2.4-1.74,5.75-1.27,7.57,1.08,7.59,9.77,33.16,33.78,51.58,34.42,0,0,0,26.59-20.94,43.51l-57.17-65.27Z"/><path d="m218.24,261c-.17,0-.34-.07-.46-.21-.22-.25-.19-.63.06-.85,11.74-10.18,12.67-36.37,12.68-36.63,0-.27.19-.5.45-.57.26-.06.53.05.67.28l17.36,29.22c2.06-1.76,9.49-9.5,4.88-26.14-.09-.32.1-.65.42-.74.33-.09.65.1.74.42,2.88,10.41,1.16,17.41-.8,21.45-2.14,4.42-4.96,6.34-5.08,6.42-.14.09-.31.12-.47.09-.16-.04-.3-.14-.39-.28l-16.71-28.12c-.19,2.58-.66,7.38-1.81,12.73-2.3,10.69-6.06,18.36-11.17,22.79-.11.1-.25.15-.4.15Z"/><path fill="#f9f9ff" d="m290.51,428.34l-103.99-12.68c-1.7-.21-3.1-1.47-3.45-3.15-11.22-53.66-3.51-108.94,20.26-165.58.7-1.66,2.41-2.65,4.2-2.43l103.49,12.62c2.67.33,4.27,3.13,3.2,5.6-19.64,45.27-26.16,98.92-19.22,161.18.29,2.58-1.91,4.75-4.48,4.43Z"/><path fill="#b8c2d8" d="M291.12 274.91c-.15 0-.31-.01-.47-.03l-68.45-8.86c-1.98-.26-3.39-2.08-3.13-4.06.26-1.99 2.08-3.38 4.06-3.13l68.45 8.86c1.98.26 3.39 2.08 3.13 4.06-.24 1.83-1.8 3.16-3.59 3.16zM285.49 289.41c-.15 0-.31-.01-.47-.03l-68.45-8.86c-1.98-.26-3.39-2.08-3.13-4.06.26-1.99 2.08-3.39 4.06-3.13l68.45 8.86c1.98.26 3.39 2.08 3.13 4.06-.24 1.83-1.8 3.16-3.59 3.16z"/><path d="m221.22,157.84c-.75,0-1.49-.11-2.21-.33-5.2-1.59-7.69-8.58-5.55-15.59,1.02-3.36,2.95-6.24,5.42-8.1,2.53-1.9,5.32-2.52,7.88-1.74,2.55.78,4.53,2.85,5.57,5.84,1.02,2.92,1.01,6.38-.01,9.74h0c-1.02,3.36-2.95,6.24-5.42,8.1-1.81,1.36-3.77,2.07-5.67,2.07Zm3.34-24.87c-1.65,0-3.35.62-4.95,1.82-2.27,1.71-4.04,4.36-4.99,7.48-1.94,6.37.19,12.69,4.75,14.08,2.17.66,4.59.11,6.8-1.55,2.27-1.71,4.04-4.36,4.99-7.48h0c.95-3.12.96-6.31.03-9-.91-2.61-2.61-4.42-4.78-5.08-.6-.18-1.22-.27-1.85-.27Z"/><polygon fill="#b8c2d8" points="236.36 517.06 221.87 708.04 338.63 708.04 375.67 466.29 236.36 517.06"/><path d="m247.15,164.29c-.8,0-1.59-.12-2.36-.35-5.18-1.58-7.8-8.13-5.83-14.61.95-3.11,2.8-5.75,5.22-7.43,2.46-1.71,5.22-2.22,7.75-1.45,2.54.77,4.54,2.74,5.63,5.53,1.07,2.74,1.14,5.97.2,9.08h0c-.95,3.11-2.8,5.75-5.22,7.43-1.71,1.19-3.57,1.8-5.39,1.8Zm2.44-23.02c-1.59,0-3.22.54-4.74,1.59-2.21,1.53-3.9,3.95-4.78,6.81-1.78,5.86.48,11.76,5.06,13.16,2.19.67,4.59.21,6.75-1.29,2.21-1.53,3.9-3.95,4.78-6.81h0c.87-2.86.81-5.82-.17-8.32-.96-2.45-2.7-4.17-4.89-4.84-.66-.2-1.33-.3-2.02-.3Z"/><rect width="1.21" height="31.08" x="200.73" y="116.73" transform="rotate(-73.43 201.34 132.274)"/><path fill="#112e5b" d="m619.66,629.87c-20.94,26.59-62,45.93-62,45.93-34.63-8.86-52.34,1.61-52.34,1.61l20.94,23.37-37.85,22.56-18.52-24.17c-16.91-14.5-16.1-26.59-16.1-26.59,0,0,19.33,1.61,33.82-10.48,14.49-12.09,62-13.7,70.06-20.15,8.05-6.45,42.68-40.29,26.57-43.51,35.43-12.89,56.37,4.83,35.43,31.43Z"/><rect width="1.21" height="9.73" x="236.16" y="137.88" transform="rotate(-65.54 236.765 142.752)"/><path fill="#b8c2d8" d="m75.31,447.75l-8.58,44.74c-7.02,35.42,21.65,67.78,57.63,65.05l59.26-4.5c11.77-.89,23.44-2.92,34.82-6.05l108.9-29.94,60.39,78.97,84.55-59.63-65.37-119.29c-25.4-46.36-80.79-67.26-130.45-49.23l-201.17,79.87Z"/><path fill="#ffbc97" d="m196.1,341.39s16.1-16.92,27.38-19.34c20.07-4.3,26.66-19.1,32.49-26.83,2.57-3.41,7.05-4.97,11.09-3.59,4.13,1.41,7.55,5.44,4.73,15.92-5.64,20.95-8.05,31.43,10.47,33.04,18.52,1.61,33.02.81,23.35,23.37,0,0,8.86,12.09-8.05,20.15,0,0,7.25,7.25-3.22,14.5-10.47,7.25-87.77,13.7-87.77,13.7,0,0-24.16-3.22-26.57-30.62-2.42-27.4,16.1-40.29,16.1-40.29Z"/><path fill="#ffbc97" d="m209.79,412.3c-36.39,16.4-78.97,19.88-125.13,15.87-33.04-2.87-53.99-33.7-42.33-62.03h0c7.66-18.62,27.54-30.66,49.33-29.86l118.13,4.31v71.72Z"/><path fill="#ffcc83" d="m143.75,338.17s-84.54,62.04-71.66,95.08c0,0-24.16-7.25-25.77-16.92-1.15-6.88-8.82-24.78-13.14-34.53-1.86-4.19-1.75-8.99.3-13.09l8.95-17.92c1.49-2.98,4.02-5.3,7.12-6.51,13.45-5.28,51.3-19.27,66.83-15.78,19.04,4.28,27.37,9.68,27.37,9.68Z"/><path fill="#ffbc97" d="M387.75 596.03s21.17 23.85 47.51 54.8l18.52 21.76s19.33 1.61 33.82-10.48c14.49-12.09 62-13.7 70.06-20.15 8.05-6.45 42.68-40.29 26.57-43.51-16.1-3.22-49.93 1.61-66.03-2.42-16.1-4.03-50.33-56.51-50.33-56.51l-80.12 56.51zM338.63 708.04s-8.86 61.24-.81 76.55c8.05 15.31 32.21 41.9 45.09 47.54 12.88 5.64-39.46 24.98-63.61 14.5-24.16-10.48-34.63-17.73-44.29-33.84-9.66-16.12-49.93-24.17-49.93-24.17 0 0 4.03-15.31 4.03-33.84s-2.45-46.74-2.45-46.74h111.97z"/><path fill="#7c4b33" d="m242.8,115.75s-37.85,24.98-60.39,12.89c0,0,13.69-29.01,33.82-29.82,20.13-.81,36.24,9.67,41.07,18.53,4.83,8.86,4.22,16.33,4.22,16.33,0,0-11.47-5.86-18.71-17.94Z"/><path d="M191.67 246.5c-.17 0-.34-.07-.46-.21l-38.65-44.32c-.22-.25-.19-.63.06-.85s.63-.19.85.06l38.65 44.32c.22.25.19.63-.06.85-.11.1-.26.15-.4.15zM135.3 333.53c-.07 0-.14-.01-.21-.04-.31-.11-.48-.46-.36-.77l17.67-49.04c-.1-1.94-1.86-28.59-24.85-60.8-.19-.27-.13-.65.14-.84.27-.2.65-.13.84.14 12.53 17.55 18.68 33.34 21.63 43.5 3.21 11.03 3.44 17.8 3.45 18.08 0 .08-.01.15-.04.22l-17.72 49.16c-.09.25-.32.4-.57.4zM69.22 362.97c-.17 0-.34-.07-.46-.21-.22-.25-.19-.64.07-.85 21.25-18.07 48.54-27.32 72.98-24.75.33.04.57.33.54.66-.04.33-.34.58-.66.54-24.12-2.54-51.07 6.61-72.07 24.47-.11.1-.25.14-.39.14z"/><path d="M57.59 342.2c-.24 0-.47-.14-.56-.38-.12-.31.03-.66.34-.79 14.66-5.84 27.96-10.81 42.21-12.54 16.4-1.98 31.51 1.16 42.55 8.84.27.19.34.57.15.84-.19.27-.57.34-.84.15-10.79-7.51-25.61-10.58-41.72-8.63-14.1 1.7-27.32 6.65-41.9 12.46-.07.03-.15.04-.22.04zM293.93 366.57c-.28 0-.53-.19-.59-.48-.07-.33.14-.65.46-.72l11.27-2.42c.32-.07.65.14.72.46.07.33-.14.65-.46.72l-11.27 2.42s-.08.01-.13.01zM291.06 385.78c-.28 0-.53-.19-.59-.48-.07-.33.14-.65.46-.72l6.9-1.48c.32-.07.65.14.72.46.07.33-.14.65-.46.72l-6.9 1.48s-.08.01-.13.01zM274.61 210.24c-.23 0-.45-.14-.55-.36l-5.64-12.89c-.13-.31 0-.66.31-.8.3-.13.66 0 .8.31l5.64 12.89c.13.31 0 .66-.31.8-.08.03-.16.05-.24.05zM263.34 178s-.03 0-.05 0l-9.66-.81c-.33-.03-.58-.32-.55-.65.03-.33.33-.58.65-.55l9.66.81c.33.03.58.32.55.65-.03.32-.29.55-.6.55zM270.28 168.17s-.03 0-.05 0l-7.75-.65c-.33-.03-.58-.32-.55-.65.03-.33.33-.57.65-.55l7.75.65c.33.03.58.32.55.65-.03.32-.29.55-.6.55zM279.94 161.39s-.03 0-.05 0l-3.72-.31c-.33-.03-.58-.32-.55-.65s.32-.57.65-.55l3.72.31c.33.03.58.32.55.65-.03.32-.29.55-.6.55zM292.06 234.25c-.3 0-.56-.22-.6-.53-.04-.33.19-.63.52-.68 4.22-.53 8.33-2.05 11.88-4.4.28-.19.65-.11.84.17.18.28.11.65-.17.84-3.7 2.45-7.99 4.04-12.4 4.6-.03 0-.05 0-.08 0zM388.15 596.23c-.18 0-.36-.08-.48-.24l-96.63-125.71c-.2-.26-.15-.64.11-.85.27-.2.64-.15.85.11l96.63 125.71c.2.26.15.64-.11.85-.11.08-.24.13-.37.13z"/><path d="m203.19,551.11c-.3,0-.56-.23-.6-.53-.04-.33.2-.63.53-.67,27.25-3.17,123.09-33.12,124.05-33.42.32-.1.66.08.76.4.1.32-.08.66-.4.76-.97.3-96.91,30.28-124.27,33.47-.02,0-.05,0-.07,0Z"/></g><g transform="translate(595.956 350.325) scale(.60697)"><rect width="64.62" height="205.7" x="258.61" y="182.84" fill="#ffcc83" rx="32.31" ry="32.31" transform="rotate(20.56 290.95 285.71)"/><path fill="#ffcc83" d="m420.81,158.36l44.48,4.26c54.35,5.21,92.12,56.53,80.95,110.02l-30.46,145.94H246.43l44.44-208.03c2.37-11.11,10.4-20.16,21.14-23.84l69.1-23.68,39.7-4.67Z"/><path fill="#112e5b" d="m349.72,173.48s13.49,44.08,21.27,52.65c0,0,25.69-44.41,46.71-57.65,0,0-49.55,11.56-67.98,5Z"/><path fill="#fad0c9" d="m356.2,147.45s1.56,23.37-11.68,30.38c0,0-5.64,18.85,35.81,14.02,33.48-3.9,51.38-32.72,51.38-32.72,0,0-31.14-21.04-38.93-43.63,0,0-10.9-6.23-23.36-.78-12.46,5.45-16.35,19.48-13.23,32.72Z"/><path fill="#f90065" d="M370.21 226.14s48.97-67.43 38.89-86.3c0 0 10.94-4.07 22.62 19.3 0 0 5.45 16.36 5.45 22.59s-28.03 3.9-37.37 14.02c-9.34 10.13-23.36 27.27-29.58 30.38zM354.75 162.62s-5.56 26.12 15.46 62.73c0 0-14.01-20.26-20.24-21.04-3.85-.48-10.68-.96-15.33-1.26-2.58-.16-4.35-2.64-3.69-5.14 2.55-9.54 8.77-30.32 15.9-35.67 4.67-3.51 7.76-4.09 8.56-3.12 0 .78-.67 3.49-.67 3.49z"/><path fill="#fad0c9" d="m401.83,95.11c-3.7-3.17-8.64-4.05-13.34-2.86-8.81-19.07-25.91-26.79-43.03-20.75-18.53,6.54-30.05,26.73-22.06,49.39,7.99,22.66,16.76,40.23,35.28,33.68,10.38-3.66,21.61-14.11,28.09-26.58,6-1.97,12.21-5.98,15.56-9.89,6.15-7.19,5.93-17.49-.5-22.99Z"/><path d="m401.65,108.71c-3.28-3.32-7.6-5.7-12.16-6.69l.3-1.37c4.82,1.05,9.39,3.56,12.86,7.08l-.99.98Z"/><path fill="#fff" d="m397.51,104.52c-.16,2.21-.31,4.42-.47,6.63"/><rect width="6.64" height="1.4" x="393.95" y="107.13" transform="rotate(-85.94 397.284 107.827)"/><ellipse cx="355.66" cy="107.54" rx="2.22" ry="3.1" transform="rotate(-19.4 355.623 107.542)"/><ellipse cx="333.63" cy="114.54" rx="2.22" ry="3.1" transform="rotate(-19.4 333.596 114.525)"/><path d="M339.49 129.39l-.9-1.07c3.05-2.59 4.98-6.36 5.3-10.35.32-3.99-.98-8.02-3.58-11.07l1.06-.91c2.83 3.33 4.26 7.73 3.91 12.09-.35 4.36-2.46 8.48-5.79 11.31zM351.67 136.29l-.51-1.3c5.29-2.08 9.23-7.5 9.57-13.18l1.4.09c-.38 6.3-4.59 12.09-10.46 14.4z"/><path d="M358.92 155.23l-.47-1.32c10.3-3.64 21.43-14.19 27.7-26.24l.13-.25.27-.09c5.79-1.9 11.91-5.79 15.24-9.68 5.89-6.89 5.7-16.76-.42-22-3.39-2.91-8.03-3.9-12.72-2.72l-.56.14-.24-.53c-8.51-18.42-25.05-26.42-42.16-20.38l-.47-1.32c17.67-6.24 34.75 1.84 43.65 20.6 4.95-1.08 9.8.06 13.41 3.14 6.71 5.75 6.97 16.5.58 23.98-3.43 4.01-9.67 8.01-15.6 10.01-6.54 12.43-17.64 22.88-28.34 26.66zM457.4 265.9s6.23 13.87-18.68 63.65c-24.91 49.78-14.01-13.06-9.34-25.3 4.67-12.24 16.35-43.25 28.03-38.35z"/><polygon fill="#fff" points="375.66 236.42 368.65 236.42 369.59 225.2 370.99 225.2 375.66 236.42"/><path fill="#fad0c9" d="m336.73,287.69s-1.56,16.36,2.34,24.15c2.34,4.67,47.49,5.45,37.37-9.35-10.12-14.8-39.7-14.8-39.7-14.8Z"/><path fill="#fad0c9" d="m451.18,269.77l-62.41-28.14c-5.45-2.46-11.59-2.86-17.31-1.14-22.41,6.73-80.3,24.28-91.55,29.29-14.01,6.23-7.01,24.93,10.12,21.04,17.13-3.9,45.93-12.47,45.93-12.47,0,0,37.37,42.07,51.38,43.63s30.36-3.12,30.36-3.12c0,0,24.13-2.34,35.03-20.26,10.9-17.92-1.56-28.83-1.56-28.83Z"/><path d="M410.55 318.08c-12.95 0-26.08-6.11-33.82-16.46-.19-.26-.14-.62.12-.82.26-.19.62-.14.82.12 9.63 12.86 27.82 18.99 43.26 14.56.31-.09.63.09.72.4.09.31-.09.63-.4.72-3.47 1-7.08 1.47-10.7 1.47zM355.03 315.42c-.39 0-.77 0-1.16 0-6.85-.1-14.25-1.16-15.33-3.32-3.92-7.85-2.46-23.79-2.39-24.47.03-.3.28-.53.58-.53.07 0 7.56.02 16.18 1.86 8.01 1.71 18.67 5.39 24.01 13.19 1.7 2.49 2.03 4.73.99 6.68-2.61 4.87-13.31 6.58-22.87 6.58zm-17.76-27.14c-.22 2.88-1.06 16.53 2.32 23.3.61 1.22 6.12 2.55 14.3 2.67 9.76.15 20.67-1.65 22.99-5.96.82-1.53.51-3.37-.92-5.47-9.09-13.29-34.65-14.44-38.69-14.54z"/><path fill="#fad0c9" d="m347.63,250.29l-20.88,25.82c-3.16,3.91-2.82,9.59.8,13.08l16.97,16.42s5.45,3.12,11.68-3.12c0,0,14.01,7.01,24.91-1.56,0,0,19.46,7.01,28.03-7.79,8.56-14.8-13.23-12.47-13.23-12.47l-6.23-9.35,5.45-12.47"/><path d="m348.03,306.95c-2.28,0-3.77-.82-3.8-.83-.04-.02-.08-.05-.12-.09l-16.97-16.42c-3.86-3.73-4.22-9.69-.84-13.87l14.24-17.6c.2-.25.57-.29.82-.09.25.2.29.57.09.82l-14.24,17.6c-2.99,3.7-2.67,8.98.75,12.29l16.91,16.36c.6.31,5.37,2.5,10.92-3.05.18-.18.45-.22.67-.11.14.07,13.82,6.74,24.29-1.5.16-.12.37-.16.56-.09.19.07,19.11,6.67,27.32-7.53,2.05-3.54,2.45-6.31,1.21-8.23-2.91-4.48-13.77-3.37-13.87-3.36-.22.02-.43-.08-.55-.26l-6.23-9.35c-.11-.17-.13-.38-.05-.56l5.45-12.47c.13-.3.47-.43.77-.3.29.13.43.47.3.77l-5.32,12.17,5.86,8.79c2.01-.17,11.61-.72,14.62,3.92,1.51,2.32,1.11,5.5-1.18,9.45-8.11,14.02-25.86,8.97-28.42,8.15-10.01,7.62-22.57,2.64-24.9,1.6-3.12,2.99-6.08,3.76-8.29,3.76Z"/><path d="M381.11 301.52c-.2 0-.4-.1-.5-.29l-12.97-22.07c-1.74-2.96-2.1-6.52-.98-9.76l4.73-13.72c.11-.3.44-.47.74-.36.3.1.47.44.36.74l-4.73 13.72c-1.01 2.92-.69 6.13.88 8.79l12.97 22.07c.16.28.07.64-.21.8-.09.05-.19.08-.29.08zM356.2 303.07c-.19 0-.37-.09-.48-.26l-13.11-19.39c-3.01-4.45-2.91-10.36.23-14.7l7.77-10.74c.19-.26.55-.32.82-.13.26.19.32.55.13.82l-7.77 10.74c-2.86 3.95-2.95 9.32-.21 13.37l13.11 19.39c.18.27.11.63-.16.81-.1.07-.21.1-.33.1zM249.54 406.69s-.08 0-.12-.01c-.31-.07-.52-.38-.45-.69l42.82-200.23c.07-.32.39-.52.69-.45.31.07.52.38.45.69l-42.82 200.23c-.06.27-.3.46-.57.46z"/><path fill="#af92cb" d="m384.94,344.83l-169.49,22.9-73.84-87.96c-4.7-6.04-4.41-25.32,12.02-27.54l134.02-18.11c5.22-.71,10.43,1.42,13.66,5.58l83.62,105.12Z"/><path d="m215.18,368.42l-.23-.27-73.84-87.96c-2.74-3.53-3.97-11.5-1.21-18.27,1.67-4.09,5.39-9.21,13.65-10.32l134.02-18.11c5.43-.74,10.9,1.5,14.26,5.83l84.32,106.01-170.97,23.1Zm74.44-133.77c-.62,0-1.25.04-1.88.13l-134.02,18.11c-7.64,1.03-11.08,5.75-12.62,9.53-2.59,6.34-1.49,13.75,1.02,16.97l73.59,87.66,168-22.7-82.9-104.22c-2.7-3.47-6.86-5.47-11.19-5.47Z"/><path fill="#624e76" d="m370.05,346.73l-159.62,21.56-68.82-88.52c-4.7-6.04-1.08-14.9,6.5-15.92l134.1-18.12c5.22-.71,10.43,1.42,13.66,5.58l74.18,95.41Z"/><path d="m210.15,368.99l-69.05-88.82c-2.35-3.02-2.89-6.94-1.44-10.49s4.57-5.97,8.36-6.48l134.1-18.12c5.43-.73,10.9,1.5,14.26,5.83l74.87,96.3-1.12.15-159.99,21.61Zm74.02-122.74c-.62,0-1.25.04-1.88.13l-134.1,18.12c-3.33.45-6.07,2.57-7.34,5.68-1.27,3.11-.8,6.55,1.26,9.2l68.59,88.23,158.13-21.36-73.49-94.52c-2.69-3.47-6.86-5.47-11.19-5.47Z"/><polygon fill="#90d8e0" points="310.27 354.65 153.77 375.8 182.24 328.72 338.74 307.58 310.27 354.65"/><path d="m152.53,376.61l29.32-48.48.3-.04,157.82-21.32-29.32,48.48-.3.04-157.82,21.32Zm30.1-47.29l-27.62,45.66,154.87-20.92,27.62-45.66-154.87,20.92Z"/><polygon points="310.27 354.65 338.74 307.58 370.05 346.73 310.27 354.65"/><ellipse cx="232.08" cy="293.17" fill="#fff" rx="13.36" ry="19.19" transform="rotate(-63.26 232.109 293.176)"/><path d="M237.27 308.41c-8.63 0-18.11-5.34-22.07-12.78-2.14-4.02-2.39-8.07-.69-11.38 1.71-3.34 5.18-5.52 9.75-6.14 9.25-1.25 20.33 4.4 24.7 12.61h0c2.14 4.02 2.39 8.07.69 11.38-1.71 3.34-5.18 5.52-9.75 6.14-.86.12-1.74.17-2.63.17zm-10.35-29.46c-.85 0-1.69.05-2.52.17-4.24.57-7.43 2.56-8.98 5.6-1.54 3.01-1.3 6.72.68 10.44 4.18 7.85 14.79 13.27 23.66 12.07 4.24-.57 7.43-2.56 8.98-5.6 1.54-3.01 1.3-6.72-.68-10.44h0c-3.79-7.12-12.87-12.24-21.14-12.24zM348.71 309.17h0c-1.1.67-2.66.36-3.48-.7l-17.43-22.57c-.82-1.06-.59-2.46.51-3.14h0c1.1-.67 2.66-.36 3.48.7l17.43 22.57c.82 1.06.59 2.46-.51 3.14z"/><path fill="#fad0c9" d="m214.68,266.12c-5.19-1.71-10.29-.24-10.29-.24,2.42-3.33,1.53-6.53-.46-9.2-3.7-4.95-10.34-6.66-16.11-4.45-16.13,6.17-54.32,22.15-57.38,36.25-2.71,12.48,21.01,46.5,35.66,66,5.5-9.3,11.05-20.81,19.12-21.65,5.62-.36,31.72-2.5,32.42-10.85.78-9.35-36.49-4.52-36.49-4.52l26.28-10.12c2.38-.92,5.99-2.32,7.88-4.05,9.34-8.57,1.56-18.7-7.79-14.8l8.97-5.3c6.94-4.1,5.87-14.53-1.79-17.05Z"/><path d="M164.68 285.15c-.22 0-.43-.12-.53-.34-.14-.29-.01-.64.28-.78l39.7-18.7c.29-.14.64-.01.78.28.14.29.01.64-.28.78l-39.7 18.7c-.08.04-.16.06-.25.06zM174.02 304.63c-.22 0-.43-.12-.53-.34-.14-.29-.01-.64.28-.78l39.7-18.7c.29-.14.64-.01.78.28.14.29.01.64-.28.78l-39.7 18.7c-.08.04-.16.06-.25.06zM188.97 333.1c-.31 0-.57-.24-.58-.55-.02-.32.23-.6.55-.61 21.35-1.11 27.41-8.18 27.47-8.25.21-.25.57-.29.82-.08.25.2.29.57.08.82-.25.31-6.35 7.54-28.31 8.68-.01 0-.02 0-.03 0z"/><rect width="88.41" height="241.81" x="483" y="184.1" fill="#ffcc83" rx="44.2" ry="44.2" transform="rotate(-21.14 527.173 305)"/><path fill="#fad0c9" d="m593.22,401.76h0c-13.2,20.55-40.54,26.51-61.08,13.3l-120.9-95.81c-11.55-9.15-11.06-26.84.97-35.34l16.09-11.36c7.8-5.51,18.07-6.07,26.41-1.43l125.21,69.52c20.54,13.21,26.49,40.57,13.29,61.12Z"/><path fill="#ffcc83" d="m559.39,426.37c-14.47,4.14-111.96-62.58-134.11-77.92,2.28.16,6.45-4.94,13.44-18.9,24.91-49.78,18.68-63.65,18.68-63.65h0v-.02s94.99,35.06,131.04,81.88c36.05,46.82-12.7,73.94-29.05,78.61Z"/><path d="M544.19 309.98c-.11 0-.22-.03-.32-.1-38.6-25.26-83.5-42.28-86.52-43.4-.17-.01-.33-.1-.43-.24-.11-.15-.14-.35-.08-.52.05-.15.16-.29.3-.36s.31-.09.46-.03c.47.17 47.03 17.49 86.91 43.58.27.18.35.54.17.81-.11.17-.3.26-.49.26zM513.35 406.35c-.1 0-.2-.03-.3-.08-33.82-20.01-75.99-48.94-88.1-57.33-.27-.18-.33-.55-.15-.81.18-.26.55-.33.81-.15 12.11 8.39 54.25 37.3 88.03 57.29.28.16.37.52.21.8-.11.18-.3.29-.5.29z"/><path d="m465.53,268.58c-.23,0-.46-.14-.54-.37l-7.17-18.58c-6.5-16.84-2.32-35.83,10.64-48.39.23-.22.6-.22.83.01.22.23.22.6-.01.83-12.63,12.23-16.7,30.72-10.37,47.12l7.17,18.58c.12.3-.03.64-.33.76-.07.03-.14.04-.21.04Z"/><path fill="#b8c2d8" d="m515.79,418.58H211.22c-53.32,0-92.11,50.63-78.27,102.16l69.87,260.12s81.74,51.42,181.39,21.04c0,0-10.9-90.38-8.56-111.41,2.34-21.04,21.8-133.23,21.8-133.23l64.6,4.73h0c39.1,5.4,72.28-28.59,65.98-67.58l-12.25-75.83Z"/><path fill="#112e5b" d="m297.81,858.77H80.94c-4.39,0-8.37-1.92-11.25-5.02-2.87-3.1-4.66-7.39-4.66-12.12.03-.65.07-1.29.13-1.92,4.16-45.68,80.01-48.55,97.46-66.64,18.79-19.48,29.64-33.5,29.64-33.5,23.85-3.12,25.62,25.71,44.1,35.06,18.47,9.35,57.11,8.57,57.11,8.57l2.83,49.39,1.5,26.18Z"/><path d="m298.43,859.35H80.94c-4.41,0-8.56-1.85-11.68-5.2-3.1-3.35-4.81-7.8-4.81-12.52.03-.68.07-1.34.14-1.98,2.76-30.37,36.98-42.1,64.48-51.53,14.62-5.01,27.25-9.34,33.14-15.45,18.55-19.23,29.49-33.31,29.6-33.45l.15-.19.24-.03c14.52-1.89,20.98,7.64,27.81,17.73,4.55,6.72,9.25,13.66,16.62,17.39,18.13,9.18,56.45,8.51,56.84,8.51h.56s4.4,76.74,4.4,76.74Zm-105.85-119.24c-1.38,1.75-12.11,15.3-29.53,33.36-6.09,6.31-18.84,10.69-33.6,15.75-27.18,9.32-61,20.92-63.7,50.54-.06.62-.1,1.26-.13,1.9,0,4.4,1.6,8.57,4.5,11.7,2.89,3.11,6.74,4.83,10.82,4.83h216.25l-4.27-74.4c-2.24.02-10.89.04-21.12-.79-10.97-.89-26.07-2.98-35.7-7.85-7.64-3.87-12.43-10.94-17.06-17.78-6.59-9.73-12.81-18.92-26.46-17.25Z"/><path d="M297.81 858.77H80.94c-4.39 0-8.37-1.92-11.25-5.02-2.87-3.1-4.66-7.39-4.66-12.12.03-.65.07-1.29.13-1.92l231.14-7.11 1.5 26.18zM246.42 798.21c-.31 0-.57-.25-.58-.56l-11.57-306.62c-.65-17.09 5.62-33.19 17.64-45.34 12.02-12.15 28.08-18.57 45.13-18.11l187.62 5.22c.32 0 .58.28.57.6 0 .32-.3.57-.6.57l-187.62-5.22c-16.77-.46-32.48 5.84-44.27 17.76-11.79 11.92-17.94 27.72-17.31 44.48l11.57 306.62c.01.32-.24.59-.56.61 0 0-.02 0-.02 0z"/><path d="m390.45,600.69s-.06,0-.09,0c-.32-.05-.54-.35-.48-.67l12.46-77.91c.05-.32.35-.54.67-.48.32.05.54.35.48.67l-12.46,77.91c-.05.29-.29.49-.58.49Z"/><path d="m399.93,547.19c-.16,0-.33-.07-.44-.2-.21-.24-.18-.61.06-.82,11.41-9.81,18.7-24.03,20-39.03.03-.32.32-.56.63-.53.32.03.56.31.53.63-1.32,15.3-8.76,29.81-20.4,39.81-.11.09-.25.14-.38.14Z"/><path fill="#7c4b33" d="m379.46,108.88c-.24.9-1.53.92-1.78.03-1.15-4.12-3.41-7.85-2.5-12.03.73-3.33.81-9.58-3.01-11.43-2.89-1.4-7.06,1.18-11.42,3.02-12.95,5.44-37.21,15.16-52.15,6.17-4.58-2.75-11.21-10.84-13.14-15.82-1.93-4.98-2.63-10.34-3.31-15.64,13.15,3.73,27.18,4.28,40.58,1.6,8.66-1.74,17.22-4.81,26.04-4.3s18.25,6.03,19.44,14.79c5.11-3.71,12.81-3.26,17.46,1.01,4.56,4.19,1.62,16.26,1.62,16.26-4.3-.96-9.31-.7-12.64,3.49-2.82,3.55-3.96,8.34-5.17,12.86Z"/><path fill="#112e5b" d="m400.9,850.97c-.65,11.97-1.88,22.59-1.88,22.59,0,0-196.97,1.56-227.33,0-12.21-.63-28-3.92-32.7-14.8-1.21-2.81-1.96-5.39-2.27-7.79-1.46-11.45,7.15-18.79,24.07-26.49,16.85-7.67,66.95-48.3,66.95-48.3,0,0,7.01-30.38,27.25-31.94s17.91,31.16,60.72,35.84c42.82,4.67,63.35-17.17,63.35-17.17,0,0,1.27,10.94,14.5,38.21,4.56,9.4,6.63,18.97,7.37,27.49.56,6.36.38,14.65-.04,22.37Z"/><path d="m400.9,850.97c-.65,11.97-1.88,22.59-1.88,22.59,0,0-196.97,1.56-227.33,0-12.21-.63-28-3.92-32.7-14.8-1.21-2.81-1.96-5.39-2.27-7.79h264.18Z"/><path d="m244.06,874.84c-33.7,0-62.33-.17-72.4-.69-10.19-.53-28.04-3.19-33.2-15.16-1.24-2.86-1.99-5.46-2.32-7.95-1.6-12.55,8.6-19.91,24.41-27.1,16.13-7.34,63.6-45.62,66.67-48.1.67-2.66,8.16-30.69,27.72-32.2,8.92-.69,13.51,4.94,19.32,12.07,7.66,9.41,17.18,21.11,41.52,23.77,21.99,2.4,37.92-2.36,47.42-6.78,10.26-4.77,15.39-10.15,15.44-10.21l.86-.91.15,1.25c.01.11,1.43,11.2,14.45,38.02,4.05,8.34,6.55,17.66,7.43,27.7.49,5.51.47,13.07-.04,22.45-.64,11.86-1.87,22.52-1.89,22.63l-.06.51h-.52c-1.31.01-88.11.69-154.96.69Zm12.29-130.07c-.43,0-.86.02-1.31.05-19.58,1.51-26.66,31.19-26.72,31.49l-.04.2-.16.13c-.5.41-50.36,40.77-67.08,48.38-18.38,8.36-25.04,15.62-23.73,25.88.31,2.37,1.04,4.87,2.23,7.63,4.91,11.38,22.28,13.94,32.19,14.45,29.24,1.5,215.51.09,226.77,0,.25-2.26,1.27-11.7,1.82-22.04h0c.51-9.33.52-16.83.04-22.29-.87-9.9-3.33-19.08-7.32-27.29-10.93-22.52-13.71-33.84-14.37-37.26-1.84,1.71-6.76,5.84-14.98,9.67-9.63,4.48-25.79,9.31-48.04,6.88-24.81-2.71-34.51-14.62-42.3-24.19-5.29-6.49-9.52-11.7-17.01-11.7Z"/></g></svg>