<?xml version="1.0" encoding="utf-8"?>
<!-- Generator: Adobe Illustrator 24.3.0, SVG Export Plug-In . SVG Version: 6.00 Build 0)  -->
<svg version="1.1" id="Layer_1" xmlns="http://www.w3.org/2000/svg" xmlns:xlink="http://www.w3.org/1999/xlink" x="0px" y="0px"
	 viewBox="0 0 120 120" enable-background="new 0 0 120 120" xml:space="preserve">
<g>
	<g>
		<path fill="#FBCF26" d="M70.891,47.44l0.001,0.918l-11.329,6.554l-11.341-6.535l-0.001-0.904l-3.726,2.155l15.048,8.586
			L74.639,49.6L70.891,47.44z M66.473,36.19l-6.929-3.994l-6.898,3.99l7.008,4.279L66.473,36.19z"/>
	</g>
</g>
<path fill="#1A2559" d="M79.153,48.739l-8.266-4.762l-0.007-8.709L59.54,28.732l-11.331,6.554l0.009,8.724l-8.233,4.762
	l0.018,22.615L59.598,82.68l19.576-11.323L79.153,48.739z M67.893,46.629l-6.832,3.951v-7.458l6.823-4.277L67.893,46.629z
	 M58.062,50.586l-6.846-3.944l-0.007-7.816l6.853,4.185V50.586z M59.544,32.197l6.929,3.994l-6.819,4.275l-7.008-4.279
	L59.544,32.197z M48.222,48.377l11.341,6.535l0.751-0.433l10.578-6.121l-0.001-0.918l3.748,2.16l-15.096,8.615l-15.048-8.586
	l3.726-2.155L48.222,48.377z M42.985,52.221l15.077,8.603v17.508l-15.062-8.677L42.985,52.221z M61.061,78.366V60.802l15.096-8.613
	l0.016,17.437L61.061,78.366z"/>
<g>
	<polygon fill="#FBCF26" points="79.173,64.032 79.173,67.469 85.948,71.248 59.559,86.861 33.175,71.248 39.999,67.442 
		39.996,64.011 27.158,71.169 59.559,90.348 91.969,71.17 	"/>
</g>
</svg>
