<?xml version="1.0" encoding="UTF-8"?>
<svg version="1.1" xmlns="http://www.w3.org/2000/svg" width="96" height="96">
<path d="M0 0 C8.80288754 6.34043826 15.4186507 14.72648904 17.58203125 25.4921875 C18.92007691 37.90936834 17.85729499 48.88109459 10.39453125 59.2421875 C3.58210875 67.3274193 -4.72289951 73.55522767 -15.48876953 74.71533203 C-28.40007937 75.61089799 -39.16843729 74.04490094 -49.3515625 65.46484375 C-57.86959925 57.33325857 -62.42046403 48.68416257 -62.88867188 36.85693359 C-63.04371176 24.34263074 -60.22647828 14.71931927 -51.41796875 5.4921875 C-37.63784493 -7.66275112 -16.31305228 -10.17259803 0 0 Z " fill="#036CC0" transform="translate(70.41796875,13.5078125)"/>
<path d="M0 0 C6.15022889 3.42575004 10.29097324 6.92690326 12.8125 13.5625 C12.625 16.4375 12.625 16.4375 10.875 19.0625 C2.36186997 26.19138125 -8.74227615 26.39911134 -19.29101562 25.67382812 C-26.48458207 24.85806286 -32.67062058 21.75432767 -38.375 17.4375 C-38.375 11.6245462 -35.41805551 8.52778773 -31.640625 4.4921875 C-22.74553312 -3.57474065 -10.74446444 -5.0435938 0 0 Z " fill="#49BCEF" transform="translate(60.375,62.5625)"/>
<path d="M0 0 C4.70005528 1.68492548 7.40089503 3.73004184 10 8 C11.77925264 12.58398586 12.51270906 16.51542277 10.9375 21.25 C8.63026997 26.30777064 5.81885795 29.30552696 0.5625 31.3125 C-7.4487306 32.85852696 -7.4487306 32.85852696 -11.046875 30.8671875 C-15.36676324 27.85587855 -18.38340303 25.15290285 -20 20 C-20.67447475 15.26160146 -20.50623963 11.99372965 -18.3125 7.6875 C-12.67692954 1.13805325 -8.43730214 -0.7825491 0 0 Z " fill="#4ABDF0" transform="translate(52,22)"/>
<path d="M0 0 C0.33 0 0.66 0 1 0 C1.09796875 0.80824219 1.1959375 1.61648437 1.296875 2.44921875 C2.26505063 10.58889115 2.26505063 10.58889115 7 17 C11.89704381 20.50631708 15.23039544 20.22481506 21.0390625 19.59375 C25.06404305 18.78662989 27.66210063 17.35170183 31 15 C31.495 16.98 31.495 16.98 32 19 C30.35 19.66 28.7 20.32 27 21 C27 21.66 27 22.32 27 23 C22.7052937 24.17128354 19.36353427 23.67710015 15 23 C13.783125 23.04125 12.56625 23.0825 11.3125 23.125 C7.73006405 22.98981374 6.45665902 22.55492538 4 20 C4 19.34 4 18.68 4 18 C3.34 18 2.68 18 2 18 C-0.68407013 12.63185975 -1.40013509 9.00202636 -1 3 C-0.67 2.01 -0.34 1.02 0 0 Z " fill="#0461A9" transform="translate(31,33)"/>
<path d="M0 0 C0 0.66 0 1.32 0 2 C-1.57421875 3.26171875 -1.57421875 3.26171875 -3.6875 4.6875 C-7.84378299 7.68885126 -10.24018756 10.69793943 -13 15 C-13.99 16.485 -13.99 16.485 -15 18 C-15.66 16.68 -16.32 15.36 -17 14 C-9.98181496 4.35252373 -9.98181496 4.35252373 -5 2 C-2 0 -2 0 0 0 Z " fill="#0666B2" transform="translate(36,61)"/>
<path d="M0 0 C0.33 0 0.66 0 1 0 C1.38971999 2.10149011 1.76131477 4.2063482 2.125 6.3125 C2.33382812 7.48425781 2.54265625 8.65601563 2.7578125 9.86328125 C3 13 3 13 1 16 C-1.25929298 11.48141403 -1.23967948 7.95337583 -1 3 C-0.67 2.01 -0.34 1.02 0 0 Z " fill="#0465B2" transform="translate(31,33)"/>
<path d="M0 0 C2.30441554 3.45662331 2.25860135 4.94857881 2 9 C1.67 9.66 1.34 10.32 1 11 C-0.65 10.67 -2.3 10.34 -4 10 C-3.525625 9.0925 -3.05125 8.185 -2.5625 7.25 C-1.35371179 4.73572051 -0.52006114 2.70431791 0 0 Z " fill="#0A6FB6" transform="translate(63,39)"/>
<path d="M0 0 C0 0.99 0 1.98 0 3 C-3.33333333 6 -3.33333333 6 -6 6 C-4.75453595 2.26360784 -3.36595047 1.81243487 0 0 Z " fill="#045DA2" transform="translate(61,48)"/>
</svg>
