<?xml version="1.0" encoding="utf-8"?>
<!-- Generator: Adobe Illustrator 22.0.1, SVG Export Plug-In . SVG Version: 6.00 Build 0)  -->
<svg version="1.1" id="Layer_1" xmlns="http://www.w3.org/2000/svg" xmlns:xlink="http://www.w3.org/1999/xlink" x="0px" y="0px"
	 viewBox="0 0 256 256" style="enable-background:new 0 0 256 256;" xml:space="preserve">
<style type="text/css">
	.st0{fill:#3A312A;}
	.st1{fill:#D6DF58;}
	.st2{fill:#87796F;}
	.st3{fill:#B9C239;}
	.st4{fill:#EF6D7A;}
	.st5{fill:#FCE8CB;}
	.st6{fill:#D5DE58;}
	.st7{fill:#D34E5C;}
	.st8{fill:#695B51;}
	.st9{fill:#8AC6DD;}
	.st10{fill:#D7E057;}
	.st11{fill:#B8C136;}
	.st12{fill:#F16C7A;}
	.st13{fill:#8AC2D9;}
	.st14{fill:#F7E3C7;}
	.st15{fill:#8AC3DA;}
	.st16{fill:#6DA3BC;}
	.st17{fill:#6A5C52;}
	.st18{fill:#D5DC57;}
	.st19{fill:#F6E2C6;}
	.st20{fill:#DBC7AA;}
	.st21{fill:#CE4E61;}
	.st22{fill:#FAE6CA;}
	.st23{fill:#8AC5DC;}
	.st24{fill:#DDC9AC;}
	.st25{fill:#DECAAD;}
	.st26{fill:#6CA6BE;}
	.st27{fill:#F8E4C8;}
	.st28{fill:#89C4DB;}
	.st29{fill:#ED6E7A;}
	.st30{fill:#D24E5C;}
	.st31{fill:#6DA4BD;}
	.st32{fill:#EB6E7A;}
	.st33{fill:#68A7BB;}
	.st34{fill:#B9BC37;}
	.st35{fill:#CC4E61;}
	.st36{fill:#6CA8BF;}
	.st37{fill-rule:evenodd;clip-rule:evenodd;fill:#D5DE58;}
	.st38{fill:#EA6D7A;}
	.st39{fill:#F4E0C4;}
	.st40{fill-rule:evenodd;clip-rule:evenodd;fill:#D6DF58;}
	.st41{fill-rule:evenodd;clip-rule:evenodd;fill:#F16C7A;}
	.st42{fill:#F3DEC3;}
	.st43{fill-rule:evenodd;clip-rule:evenodd;fill:#FAE6CA;}
	.st44{fill:#F59689;}
	.st45{fill-rule:evenodd;clip-rule:evenodd;fill:#F8E4C8;}
	.st46{fill-rule:evenodd;clip-rule:evenodd;fill:#FCE8CB;}
	.st47{fill:#F5978A;}
	.st48{fill:#D4DB56;}
	.st49{fill-rule:evenodd;clip-rule:evenodd;fill:#D4DA55;}
	.st50{fill-rule:evenodd;clip-rule:evenodd;fill:#EB6E7A;}
	.st51{fill:#68A6B9;}
	.st52{fill-rule:evenodd;clip-rule:evenodd;fill:#D5DC57;}
	.st53{fill:#8AC1D8;}
	.st54{fill:#F5E1C5;}
	.st55{fill:#D4D752;}
	.st56{fill:#D3D751;}
	.st57{fill:#D4D853;}
	.st58{fill:#E96C7A;}
	.st59{fill:#D4DA55;}
	.st60{fill:#8BC0D7;}
	.st61{fill:#87796F;stroke:#3A312A;stroke-width:3;stroke-linecap:round;stroke-linejoin:round;stroke-miterlimit:10;}
</style>
<g>
	<g>
		<g>
			<path class="st2" d="M207.199,31.647l-80.357-16.262c-2.535-0.513-5.147-0.513-7.682,0L38.801,31.647
				c-9.8,1.983-16.479,11.101-15.414,21.042l5.591,52.223l1.513,14.137l0.516,4.819c4.839,45.206,31.875,85.032,72.102,106.215l0,0
				c12.451,6.556,27.333,6.556,39.783,0l0,0c40.227-21.183,67.263-61.01,72.102-106.215l7.62-71.178
				C223.677,42.747,216.998,33.63,207.199,31.647z"/>
		</g>
	</g>
	<g>
		<g>
			<path class="st0" d="M207.496,30.176l-80.357-16.262c-2.746-0.556-5.531-0.556-8.277,0L38.504,30.176
				c-10.622,2.15-17.762,11.897-16.609,22.672l5.591,52.223c0.088,0.824,0.834,1.413,1.651,1.332
				c0.824-0.088,1.42-0.828,1.332-1.651l-5.591-52.223c-0.988-9.226,5.126-17.572,14.22-19.413l80.358-16.262
				c2.352-0.476,4.736-0.476,7.088,0l80.357,16.262c9.094,1.841,15.208,10.187,14.22,19.413l-7.62,71.178
				c-4.794,44.79-31.452,84.06-71.309,105.048c-12.019,6.328-26.368,6.328-38.386,0c-39.857-20.988-66.515-60.258-71.309-105.048
				l-0.516-4.818c-0.088-0.823-0.821-1.412-1.651-1.332c-0.824,0.088-1.42,0.828-1.332,1.651l0.516,4.818
				c4.901,45.785,32.151,85.928,72.895,107.383c6.446,3.395,13.518,5.092,20.59,5.092c7.072,0,14.144-1.697,20.591-5.092
				c40.743-21.455,67.993-61.598,72.895-107.383l7.62-71.178C225.258,42.073,218.118,32.326,207.496,30.176z"/>
		</g>
	</g>
	<g>
		<g>
			<path class="st29" d="M191.12,49.473l-26.822-5.428l-13.488-2.729l-24.703-4.999c-2.051-0.415-4.164-0.415-6.215,0L54.88,49.473
				c-7.928,1.604-13.332,8.981-12.471,17.024l6.165,57.586c3.915,36.573,25.788,68.794,58.333,85.933l0,0
				c10.073,5.304,22.113,5.304,32.186,0l0,0c32.545-17.138,54.418-49.359,58.333-85.933l6.165-57.586
				C204.452,58.454,199.049,51.078,191.12,49.473z"/>
		</g>
	</g>
	<g>
		<g>
			<path class="st0" d="M191.417,48.003l-26.822-5.428c-0.808-0.167-1.603,0.36-1.768,1.173c-0.164,0.812,0.361,1.603,1.173,1.768
				l26.822,5.428c7.212,1.459,12.06,8.078,11.276,15.394l-6.164,57.586c-3.869,36.141-25.38,67.829-57.541,84.766
				c-9.64,5.076-21.15,5.075-30.789,0c-32.161-16.936-53.671-48.624-57.541-84.765L43.9,66.337
				c-0.783-7.316,4.065-13.935,11.277-15.394l65.012-13.157c1.865-0.377,3.756-0.377,5.621,0l24.703,5
				c0.808,0.164,1.603-0.361,1.768-1.173s-0.361-1.603-1.173-1.768l-24.703-5c-2.259-0.457-4.55-0.457-6.81,0L54.583,48.003
				c-8.739,1.769-14.614,9.788-13.666,18.654l6.164,57.586c3.976,37.137,26.079,69.698,59.127,87.101
				c5.257,2.769,11.024,4.153,16.792,4.152c5.768,0,11.535-1.384,16.792-4.153c33.047-17.402,55.15-49.963,59.127-87.1l6.164-57.586
				C206.032,57.791,200.157,49.771,191.417,48.003z"/>
		</g>
	</g>
	<g>
		<g>
			<path class="st48" d="M42.651,200.23c-0.974,11.564-13.024,13.389-13.024,13.389c10.347,0.487,12.925,14.059,12.925,14.059
				c0.221-9.677,13.321-14.202,13.321-14.202C46.059,212.889,42.651,200.23,42.651,200.23z"/>
		</g>
	</g>
	<g>
		<g>
			<path class="st0" d="M55.962,211.979c-8.604-0.514-11.832-12.024-11.864-12.14c-0.191-0.703-0.86-1.165-1.583-1.102
				c-0.725,0.066-1.298,0.642-1.359,1.367c-0.86,10.215-11.314,11.963-11.754,12.032c-0.763,0.115-1.313,0.79-1.273,1.561
				c0.04,0.77,0.657,1.384,1.428,1.421c9.028,0.425,11.499,12.719,11.522,12.843c0.137,0.711,0.759,1.217,1.472,1.217
				c0.042,0,0.084-0.001,0.126-0.005c0.764-0.064,1.357-0.693,1.375-1.459c0.195-8.509,12.192-12.777,12.313-12.819
				c0.675-0.235,1.092-0.915,0.994-1.623C57.26,212.563,56.676,212.021,55.962,211.979z M42.396,222.325
				c-1.356-3.13-3.709-6.908-7.587-8.877c2.931-1.404,6.409-3.913,8.202-8.272c1.551,3.071,4.199,6.88,8.334,8.722
				C48.338,215.538,44.422,218.304,42.396,222.325z"/>
		</g>
	</g>
	<g>
		<g>
			<path class="st48" d="M20.952,217.21c-0.689,8.179-9.212,9.47-9.212,9.47c7.318,0.344,9.142,9.944,9.142,9.944
				c0.156-6.844,9.422-10.045,9.422-10.045C23.363,226.164,20.952,217.21,20.952,217.21z"/>
		</g>
	</g>
	<g>
		<g>
			<path class="st0" d="M30.393,225.082c-5.766-0.345-7.972-8.185-7.993-8.264c-0.19-0.702-0.85-1.165-1.582-1.102
				c-0.726,0.065-1.299,0.642-1.36,1.368c-0.579,6.87-7.647,8.066-7.942,8.113c-0.763,0.115-1.313,0.79-1.273,1.561
				c0.04,0.77,0.657,1.384,1.427,1.421c6.035,0.284,7.724,8.644,7.739,8.726c0.135,0.712,0.759,1.22,1.472,1.22
				c0.042,0,0.083-0.001,0.125-0.005c0.765-0.063,1.358-0.694,1.376-1.461c0.13-5.709,8.332-8.634,8.412-8.662
				c0.677-0.234,1.094-0.913,0.996-1.622C31.692,225.667,31.108,225.125,30.393,225.082z M20.809,231.877
				c-0.924-1.886-2.34-3.947-4.447-5.28c1.855-1.042,3.697-2.63,4.871-4.917c1.057,1.874,2.654,3.955,4.941,5.224
				C24.324,228.005,22.185,229.645,20.809,231.877z"/>
		</g>
	</g>
	<g>
		<g>
			<path class="st48" d="M20.914,190.553c-0.657,8.182-9.175,9.507-9.175,9.507c7.319,0.316,9.181,9.909,9.181,9.909
				c0.129-6.845,9.383-10.082,9.383-10.082C23.36,199.498,20.914,190.553,20.914,190.553z"/>
		</g>
	</g>
	<g>
		<g>
			<path class="st0" d="M30.386,198.389c-5.747-0.322-7.988-8.098-8.026-8.232c-0.192-0.702-0.861-1.167-1.587-1.097
				c-0.725,0.068-1.297,0.647-1.355,1.374c-0.552,6.873-7.615,8.096-7.911,8.144c-0.762,0.119-1.31,0.796-1.267,1.566
				c0.042,0.77,0.663,1.382,1.433,1.415c6.036,0.261,7.757,8.614,7.773,8.696c0.138,0.71,0.76,1.214,1.471,1.214
				c0.043,0,0.087-0.002,0.131-0.005c0.765-0.066,1.356-0.699,1.37-1.466c0.108-5.71,8.297-8.666,8.378-8.694
				c0.676-0.236,1.09-0.917,0.99-1.626C31.688,198.968,31.101,198.429,30.386,198.389z M20.829,205.221
				c-0.932-1.882-2.356-3.938-4.468-5.262c1.851-1.049,3.687-2.645,4.851-4.936c1.064,1.87,2.67,3.944,4.961,5.204
				C24.328,201.335,22.196,202.983,20.829,205.221z"/>
		</g>
	</g>
	<g>
		<g>
			
				<ellipse transform="matrix(0.0985 -0.9951 0.9951 0.0985 -19.5955 361.0685)" class="st10" cx="189.496" cy="191.35" rx="44.766" ry="44.765"/>
		</g>
	</g>
	<g>
		<g>
			<path class="st0" d="M189.496,145.084c-25.511,0-46.266,20.755-46.266,46.266s20.755,46.266,46.266,46.266
				s46.265-20.755,46.265-46.266S215.007,145.084,189.496,145.084z M189.496,234.616c-23.857,0-43.266-19.409-43.266-43.266
				s19.409-43.266,43.266-43.266c23.856,0,43.265,19.409,43.265,43.266S213.352,234.616,189.496,234.616z"/>
		</g>
	</g>
	<g>
		<g>
			<path class="st2" d="M218.354,171.752c-2.023-2.242-5.481-2.421-7.724-0.397l-30.759,27.748l-10.71-15.123
				c-1.746-2.466-5.16-3.047-7.623-1.302c-2.465,1.746-3.048,5.159-1.302,7.623l14.267,20.145c0.902,1.275,2.308,2.103,3.86,2.275
				c0.202,0.022,0.403,0.033,0.602,0.033c1.346,0,2.653-0.497,3.663-1.408l35.328-31.87
				C220.199,177.453,220.377,173.995,218.354,171.752z"/>
		</g>
	</g>
	<g>
		<g>
			<path class="st0" d="M219.468,170.748c-1.247-1.382-2.957-2.196-4.816-2.292c-1.863-0.099-3.645,0.539-5.027,1.786
				l-29.505,26.617l-9.734-13.746c-1.076-1.519-2.68-2.528-4.515-2.841c-1.835-0.314-3.682,0.107-5.199,1.182
				c-1.519,1.076-2.528,2.679-2.842,4.514s0.106,3.682,1.183,5.2l14.267,20.145c1.149,1.624,2.942,2.681,4.922,2.9
				c0.256,0.028,0.511,0.042,0.765,0.042c1.727,0,3.385-0.637,4.668-1.794l35.328-31.87
				C221.815,178.015,222.042,173.601,219.468,170.748z M216.952,178.362l-35.328,31.87c-0.839,0.757-1.975,1.119-3.096,0.998
				c-1.126-0.125-2.147-0.727-2.801-1.651l-14.267-20.146c-0.613-0.865-0.852-1.917-0.674-2.961c0.179-1.045,0.753-1.958,1.619-2.57
				c0.678-0.48,1.47-0.731,2.285-0.731c0.224,0,0.45,0.019,0.676,0.058c1.045,0.178,1.959,0.753,2.571,1.618l10.71,15.123
				c0.247,0.35,0.633,0.577,1.059,0.624c0.428,0.049,0.852-0.09,1.17-0.377l30.759-27.748c0.788-0.71,1.807-1.065,2.863-1.017
				c1.059,0.055,2.033,0.518,2.743,1.306C218.706,174.382,218.577,176.896,216.952,178.362z"/>
		</g>
	</g>
	<g>
		<g>
			<path class="st7" d="M190.82,50.94l-6.63-1.34c1.76,2.9,2.6,6.39,2.21,10.02l-6.97,65.16c-0.83,7.78-2.4,15.37-4.64,22.7
				c4.62-1.56,9.57-2.4,14.71-2.4c0.67,0,1.33,0.03,1.99,0.06c2.16-6.84,3.67-13.94,4.45-21.22l6.16-57.58
				C202.88,59.02,198.03,52.4,190.82,50.94z"/>
		</g>
	</g>
</g>
</svg>
